<svg viewBox="2.0257114565185397 0.9163792390511211 1.6882207759454455 1.6768795353770516" xmlns:xlink="http://www.w3.org/1999/xlink" version="1.1" xmlns="http://www.w3.org/2000/svg" style="max-height: 500px" width="1.6882207759454455" height="1.6768795353770516"><g transform="matrix(0.7342343737365715,0,0,0.7342343737365715,3.985782408168773,1.3711632577743709)"><rect fill="#ffffff" y="-6.004896259499264" x="-3.93089423294182" height="13.083792518998528" width="13.083792518998528"/><g clip-path="url(#SvgjsClipPath89917)" transform="matrix(1,0,0,1,0,0)"><g clip-path="url(#SvgjsClipPath8991225e2628c-d95c-40f7-9d17-bdc4cca2f2b8)"><path fill-rule="nonzero" transform="matrix(1,0,0,1,0,0)" fill="#e4df00" d="M -2.652841405869485 -0.5894207029347427 L -1.5546508872720335 -0.5894207029347427 L -1.5546508872720335 0.508769815662709 L -2.652841405869485 0.508769815662709 Z"/></g><g clip-path="url(#SvgjsClipPath8991225e2628c-d95c-40f7-9d17-bdc4cca2f2b8)"><path fill-rule="nonzero" transform="matrix(1,0,0,1,0,0)" fill="#3aade3" d="M -1.4981905185974513 -0.5894207029347427 L -0.3999999999999999 -0.5894207029347427 L -0.3999999999999999 0.508769815662709 L -1.4981905185974513 0.508769815662709 Z"/></g><g clip-path="url(#SvgjsClipPath8991225e2628c-d95c-40f7-9d17-bdc4cca2f2b8)"><path fill-rule="nonzero" transform="matrix(1,0,0,1,0,0)" fill="#c12652" d="M -2.652841405869485 0.5652301843372911 L -1.5546508872720335 0.5652301843372911 L -1.5546508872720335 1.6634207029347425 L -2.652841405869485 1.6634207029347425 Z"/></g><g clip-path="url(#SvgjsClipPath8991225e2628c-d95c-40f7-9d17-bdc4cca2f2b8)"><path fill-rule="nonzero" transform="matrix(1,0,0,1,0,0)" fill="#4c6eb4" d="M -1.4981905185974513 0.5652301843372911 L -0.3999999999999999 0.5652301843372911 L -0.3999999999999999 1.6634207029347425 L -1.4981905185974513 1.6634207029347425 Z"/></g><g clip-path="url(#SvgjsClipPath8991225e2628c-d95c-40f7-9d17-bdc4cca2f2b8)"><path fill-rule="nonzero" transform="matrix(1,0,0,1,0,0)" fill="#ffffff" d="M -1.7187009713608408 0.28098978753349346 C -1.7211241631494494 0.27541644641969354 -1.7242743124746407 0.2712970203790589 -1.727182142620971 0.26838919023272856 C -1.7266975042632495 0.2642697641920937 -1.7264551850843883 0.2584541038994329 -1.727182142620971 0.2514268477124677 C -1.7315438878404668 0.210717225663842 -1.766195530417571 0.18527371188345088 -1.7734651057833968 0.17970037076965095 C -1.8168402387994922 0.14771423916001636 -1.8577921800269788 0.17582326390787684 -1.921037485709665 0.16709977346888572 C -2.00051817637603 0.15595309124128587 -2.0174805188962903 0.1002196801032863 -2.107623253432533 0.03842828949376509 C -2.1161044246926632 -0.0034929284491650447 -2.1267664685625416 -0.05534923272539061 -2.114892828798359 -0.12368324116415536 C -2.108592530147977 -0.1600311179932855 -2.08436061226189 -0.26568227997662375 -2.102292231497594 -0.29233738965131917 C -2.1042307849284807 -0.29524521979764956 -2.111258041115446 -0.3056649444886669 -2.1192545740178548 -0.30493798695208424 C -2.127735745277985 -0.3042110294155016 -2.1311282137820373 -0.29161043211473653 -2.1362169165381157 -0.29233738965131917 C -2.139367065863307 -0.2928220280090409 -2.142517215188498 -0.29815304994398 -2.144698087798246 -0.3175385842528494 C -2.1769265385867413 -0.33013918155361444 -2.2336292264401845 -0.3473438432527361 -2.3048710650252793 -0.3427397788543796 C -2.35260794326087 -0.3398319487080492 -2.3916213310574697 -0.32820062812272766 -2.418761079089887 -0.3175385842528494 C -2.356969688480366 -0.11495975072516401 -2.3666624556348004 -0.007612354489799911 -2.3891981392688613 0.05345207858313883 C -2.3923482885940524 0.06169093066440834 -2.399133225602157 0.07865327318466897 -2.406160481789122 0.10409678696506008 C -2.430392399675209 0.19181632971269402 -2.426030654455713 0.26838919023272834 -2.418761079089887 0.3190338986146496 L -2.2203016716028365 0.3190338986146496 C -2.219574714066254 0.28753240536273683 -2.193888881107002 0.2620888915823457 -2.1619027494973673 0.2620888915823457 C -2.1299166178877327 0.2620888915823457 -2.1042307849284807 0.28753240536273683 -2.1035038273918985 0.3190338986146496 C -1.9593239159696823 0.3190338986146496 -1.865788712929387 0.3190338986146496 -1.7189432905397015 0.3190338986146496 C -1.7170047371088146 0.31418751503743225 -1.711189076816154 0.2979521300537543 -1.7187009713608408 0.28098978753349346 Z"/></g><g clip-path="url(#SvgjsClipPath8991225e2628c-d95c-40f7-9d17-bdc4cca2f2b8)"><path stroke="#e4df00" stroke-width="0.010785142012739493" stroke-linecap="round" stroke-miterlimit="10" fill-rule="nonzero" transform="matrix(1,0,0,1,0,0)" fill="none" d="M -2.199219903041941 -0.18280912080620698 L -2.102292231497594 -0.14888443576568555 Z"/></g><g clip-path="url(#SvgjsClipPath8991225e2628c-d95c-40f7-9d17-bdc4cca2f2b8)"><path stroke="#e4df00" stroke-width="0.010785142012739493" stroke-linecap="round" stroke-miterlimit="10" fill-rule="nonzero" transform="matrix(1,0,0,1,0,0)" fill="none" d="M -2.199219903041941 -0.10260147260325986 L -2.102292231497594 -0.06891910674159918 Z"/></g><g clip-path="url(#SvgjsClipPath8991225e2628c-d95c-40f7-9d17-bdc4cca2f2b8)"><path stroke="#e4df00" stroke-width="0.010785142012739493" stroke-linecap="round" stroke-miterlimit="10" fill-rule="nonzero" transform="matrix(1,0,0,1,0,0)" fill="none" d="M -2.199219903041941 -0.018274398359677924 L -2.102292231497594 0.0154079675019827 Z"/></g><g clip-path="url(#SvgjsClipPath8991225e2628c-d95c-40f7-9d17-bdc4cca2f2b8)"><path stroke="#e4df00" stroke-width="0.010785142012739493" stroke-linecap="round" stroke-miterlimit="10" fill-rule="nonzero" transform="matrix(1,0,0,1,0,0)" fill="none" d="M -2.186619305741176 -0.18692854684684174 C -2.186619305741176 -0.1752854065135413 -2.196057933968771 -0.16584677828594624 -2.2077010743020713 -0.16584677828594624 C -2.219344214635372 -0.16584677828594624 -2.228782842862967 -0.1752854065135413 -2.228782842862967 -0.18692854684684174 C -2.228782842862967 -0.19857168718014218 -2.219344214635372 -0.20801031540773723 -2.2077010743020713 -0.20801031540773723 C -2.196057933968771 -0.20801031540773723 -2.186619305741176 -0.19857168718014218 -2.186619305741176 -0.18692854684684174 Z"/></g><g clip-path="url(#SvgjsClipPath8991225e2628c-d95c-40f7-9d17-bdc4cca2f2b8)"><path stroke="#e4df00" stroke-width="0.010785142012739493" stroke-linecap="round" stroke-miterlimit="10" fill-rule="nonzero" transform="matrix(1,0,0,1,0,0)" fill="none" d="M -2.186619305741176 -0.10260147260325986 C -2.186619305741176 -0.09095833226995931 -2.196057933968771 -0.08151970404236442 -2.2077010743020713 -0.08151970404236442 C -2.219344214635372 -0.08151970404236442 -2.228782842862967 -0.09095833226995931 -2.228782842862967 -0.10260147260325986 C -2.228782842862967 -0.11424461293656024 -2.219344214635372 -0.12368324116415536 -2.2077010743020713 -0.12368324116415536 C -2.196057933968771 -0.12368324116415536 -2.186619305741176 -0.11424461293656024 -2.186619305741176 -0.10260147260325986 Z"/></g><g clip-path="url(#SvgjsClipPath8991225e2628c-d95c-40f7-9d17-bdc4cca2f2b8)"><path stroke="#e4df00" stroke-width="0.010785142012739493" stroke-linecap="round" stroke-miterlimit="10" fill-rule="nonzero" transform="matrix(1,0,0,1,0,0)" fill="none" d="M -2.186619305741176 -0.02263614357917354 C -2.186619305741176 -0.010993003245873045 -2.196057933968771 -0.0015543750182781535 -2.2077010743020713 -0.0015543750182781535 C -2.219344214635372 -0.0015543750182781535 -2.228782842862967 -0.010993003245873045 -2.228782842862967 -0.02263614357917354 C -2.228782842862967 -0.034279283912473923 -2.219344214635372 -0.043717912140068926 -2.2077010743020713 -0.043717912140068926 C -2.196057933968771 -0.043717912140068926 -2.186619305741176 -0.034279283912473923 -2.186619305741176 -0.02263614357917354 Z"/></g><g clip-path="url(#SvgjsClipPath8991225e2628c-d95c-40f7-9d17-bdc4cca2f2b8)"><path stroke="#e4df00" stroke-width="0.010785142012739493" stroke-linecap="round" stroke-miterlimit="10" fill-rule="nonzero" transform="matrix(1,0,0,1,0,0)" fill="none" d="M -2.3707818816754354 0.3011022793789455 L -2.3707818816754354 0.33672319867149303 Z"/></g><g clip-path="url(#SvgjsClipPath8991225e2628c-d95c-40f7-9d17-bdc4cca2f2b8)"><path stroke="#e4df00" stroke-width="0.010785142012739493" stroke-linecap="round" stroke-miterlimit="10" fill-rule="nonzero" transform="matrix(1,0,0,1,0,0)" fill="none" d="M -2.2656153580498186 0.30231387527324993 L -2.2656153580498186 0.33793479456579734 Z"/></g><g clip-path="url(#SvgjsClipPath8991225e2628c-d95c-40f7-9d17-bdc4cca2f2b8)"><path stroke="#e4df00" stroke-width="0.010785142012739493" stroke-linecap="round" stroke-miterlimit="10" fill-rule="nonzero" transform="matrix(1,0,0,1,0,0)" fill="none" d="M -2.318198619862627 0.30231387527324993 L -2.318198619862627 0.33793479456579734 Z"/></g><g clip-path="url(#SvgjsClipPath8991225e2628c-d95c-40f7-9d17-bdc4cca2f2b8)"><path stroke="#e4df00" stroke-width="0.010785142012739493" stroke-linecap="round" stroke-miterlimit="10" fill-rule="nonzero" transform="matrix(1,0,0,1,0,0)" fill="none" d="M -1.877420033514709 0.3011022793789455 L -1.877420033514709 0.33672319867149303 Z"/></g><g clip-path="url(#SvgjsClipPath8991225e2628c-d95c-40f7-9d17-bdc4cca2f2b8)"><path stroke="#e4df00" stroke-width="0.010785142012739493" stroke-linecap="round" stroke-miterlimit="10" fill-rule="nonzero" transform="matrix(1,0,0,1,0,0)" fill="none" d="M -1.7632877002712404 0.30231387527324993 L -1.7632877002712404 0.33793479456579734 Z"/></g><g clip-path="url(#SvgjsClipPath8991225e2628c-d95c-40f7-9d17-bdc4cca2f2b8)"><path stroke="#e4df00" stroke-width="0.010785142012739493" stroke-linecap="round" stroke-miterlimit="10" fill-rule="nonzero" transform="matrix(1,0,0,1,0,0)" fill="none" d="M -1.8204750264824052 0.30231387527324993 L -1.8204750264824052 0.33793479456579734 Z"/></g><g clip-path="url(#SvgjsClipPath8991225e2628c-d95c-40f7-9d17-bdc4cca2f2b8)"><path stroke="#e4df00" stroke-width="0.010785142012739493" stroke-linecap="round" stroke-miterlimit="10" fill-rule="nonzero" transform="matrix(1,0,0,1,0,0)" fill="none" d="M -2.048739692969342 0.3011022793789455 L -2.048739692969342 0.33672319867149303 Z"/></g><g clip-path="url(#SvgjsClipPath8991225e2628c-d95c-40f7-9d17-bdc4cca2f2b8)"><path stroke="#e4df00" stroke-width="0.010785142012739493" stroke-linecap="round" stroke-miterlimit="10" fill-rule="nonzero" transform="matrix(1,0,0,1,0,0)" fill="none" d="M -1.9346073597258737 0.30231387527324993 L -1.9346073597258737 0.33793479456579734 Z"/></g><g clip-path="url(#SvgjsClipPath8991225e2628c-d95c-40f7-9d17-bdc4cca2f2b8)"><path stroke="#e4df00" stroke-width="0.010785142012739493" stroke-linecap="round" stroke-miterlimit="10" fill-rule="nonzero" transform="matrix(1,0,0,1,0,0)" fill="none" d="M -1.9915523667581776 0.30231387527324993 L -1.9915523667581776 0.33793479456579734 Z"/></g><g clip-path="url(#SvgjsClipPath8991225e2628c-d95c-40f7-9d17-bdc4cca2f2b8)"><path stroke="#e4df00" stroke-width="0.010785142012739493" stroke-linecap="round" stroke-miterlimit="10" fill-rule="nonzero" transform="matrix(1,0,0,1,0,0)" fill="none" d="M -2.4565628709921823 0.26208889158234594 L -1.685260924678041 0.26208889158234594 Z"/></g><g clip-path="url(#SvgjsClipPath8991225e2628c-d95c-40f7-9d17-bdc4cca2f2b8)"><path stroke="#e4df00" stroke-width="0.010785142012739493" stroke-linecap="round" stroke-miterlimit="10" fill-rule="nonzero" transform="matrix(1,0,0,1,0,0)" fill="none" d="M -2.459228381959652 0.07332225124973002 C -2.4526857641304085 0.07211065535542582 -2.3702972433177134 0.059510058054660586 -2.310929044496801 0.12178608702190363 C -2.255922590895384 0.1794580515907901 -2.2663423155864013 0.2533654011433548 -2.2677962306595667 0.26208889158234594"/></g><g clip-path="url(#SvgjsClipPath8991225e2628c-d95c-40f7-9d17-bdc4cca2f2b8)"><path fill-rule="nonzero" transform="matrix(1,0,0,1,0,0)" fill="#ffffff" d="M -0.7407007654783795 0.08156110333099953 C -0.7758370464132054 -0.05462227518880791 -0.7806834299904228 -0.09097015201793818 -0.7927993889334659 -0.19734827153785905 C -0.7986150492261266 -0.24702370320433692 -0.7993420067627095 -0.2804637498871366 -0.815092753388666 -0.3342586075942492 C -0.8199391369658833 -0.3504939925779273 -0.8322974150877875 -0.374968229642875 -0.8424748205999437 -0.40986219139883984 C -0.8751879097461608 -0.40016942424440516 -0.9195323194776994 -0.39120361462655306 -0.9726002196482295 -0.39120361462655306 C -1.004828670436725 -0.39120361462655306 -1.0515962719568728 -0.39459608313060524 -1.1051488104851244 -0.41058914893542253 C -1.1158108543550025 -0.3737566337485706 -1.1255036215094372 -0.34855543914704035 -1.129623047550072 -0.33353165005766655 C -1.144646836639446 -0.27949447317169307 -1.1473123476069151 -0.24629674566775428 -1.149977858574385 -0.1963789948224155 C -1.1555511996881846 -0.09387798216426851 -1.1652439668426193 -0.05316836011564263 -1.1984416943465581 0.08325733758302567 C -1.215161717687958 0.1513490268429296 -1.2347895711756884 0.24997293263930265 -1.244966976687845 0.37428267139492777 C -1.2442400191512624 0.3757365864680928 -1.2323663793870796 0.39851458928101446 -1.2061959080701061 0.4009377810696232 C -1.1790561600376888 0.4036032920370928 -1.162820775054011 0.3817945659396146 -1.1620938175174282 0.38082528922417114 C -1.1502201777532457 0.26039265733032 -1.110722151598924 0.17291543376154672 -1.0947290857941072 0.11209331986746895 C -1.0753435514852376 0.03745901277832164 -1.0176715869163515 -0.055106913546529745 -0.9713886237539253 -0.20364857018824156 C -0.9217131920874475 -0.04929125325386907 -0.8654951425917266 0.03721669359946089 -0.8441710548519703 0.11185100068860798 C -0.8257547972585444 0.17606558308673792 -0.7867414094619447 0.25942338061487613 -0.7734138546245968 0.3796136933298667 C -0.7726868970880143 0.38058297004530994 -0.7562091929254753 0.4021493769639273 -0.7290694448930584 0.39924154681759694 C -0.7028989735760849 0.3963337166712665 -0.6912676529907629 0.37355571385834496 -0.6905406954541804 0.3721017987851798 C -0.7021720160395015 0.24779206002955467 -0.7232537846003972 0.1494104734120425 -0.7407007654783795 0.08156110333099953 Z"/></g><g clip-path="url(#SvgjsClipPath8991225e2628c-d95c-40f7-9d17-bdc4cca2f2b8)"><path stroke="#3bade3" stroke-width="0.009004096048112115" stroke-linecap="round" stroke-miterlimit="10" fill-rule="nonzero" transform="matrix(1,0,0,1,0,0)" fill="none" d="M -1.2127385258993495 0.41305374001266615 C -1.1943222683059234 0.30643330131388447 -1.1708173079564195 0.1927856064281377 -1.1407697297776718 0.07380688960745163 C -1.118234046143611 -0.014881929855625975 -1.0940021282575245 -0.09896668492034683 -1.0688009336559938 -0.17820505640785061"/></g><g clip-path="url(#SvgjsClipPath8991225e2628c-d95c-40f7-9d17-bdc4cca2f2b8)"><path stroke="#3bade3" stroke-width="0.009004096048112115" stroke-linecap="round" stroke-miterlimit="10" fill-rule="nonzero" transform="matrix(1,0,0,1,0,0)" fill="none" d="M -0.7266462531044495 0.41305374001266615 C -0.7450625106978754 0.30643330131388447 -0.7685674710473793 0.1927856064281377 -0.798615049226127 0.07380688960745163 C -0.8211507328601877 -0.014881929855625975 -0.8453826507462743 -0.09896668492034683 -0.8705838453478045 -0.17820505640785061"/></g><g clip-path="url(#SvgjsClipPath8991225e2628c-d95c-40f7-9d17-bdc4cca2f2b8)"><path stroke="#3bade3" stroke-width="0.009004096048112115" stroke-linecap="round" stroke-miterlimit="10" fill-rule="nonzero" transform="matrix(1,0,0,1,0,0)" fill="none" d="M -1.1332578352329847 -0.32965454319589266 C -1.127199855761463 -0.32844294730158835 -1.1078143214525937 -0.325292797976397 -1.0881864679648634 -0.3357125226674143 C -1.0777667432738463 -0.34128586378121434 -1.0709818062657415 -0.3487977583259012 -1.0671046994039677 -0.3536441419031186"/></g><g clip-path="url(#SvgjsClipPath8991225e2628c-d95c-40f7-9d17-bdc4cca2f2b8)"><path stroke="#3bade3" stroke-width="0.009004096048112115" stroke-linecap="round" stroke-miterlimit="10" fill-rule="nonzero" transform="matrix(1,0,0,1,0,0)" fill="none" d="M -1.116780131070446 -0.37012184606565757 C -1.085520956997394 -0.3589751638380577 -1.0365724828674985 -0.3458899281795708 -0.9757503689734208 -0.3461322473584316 C -0.9115357865752909 -0.34637456653729254 -0.8604064398356479 -0.3611560364478055 -0.8286626274048745 -0.37302967621198796"/></g><g clip-path="url(#SvgjsClipPath8991225e2628c-d95c-40f7-9d17-bdc4cca2f2b8)"><path stroke="#3bade3" stroke-width="0.00825363355118001" stroke-linecap="round" stroke-miterlimit="10" fill-rule="nonzero" transform="matrix(1,0,0,1,0,0)" fill="none" d="M -0.9624228141360733 -0.369394888529075 C -0.9624228141360733 -0.36484469575514145 -0.9661114734434093 -0.3611560364478055 -0.9706616662173428 -0.3611560364478055 C -0.9752118589912762 -0.3611560364478055 -0.9789005182986124 -0.36484469575514145 -0.9789005182986124 -0.369394888529075 C -0.9789005182986124 -0.3739450813030084 -0.9752118589912762 -0.37763374061034444 -0.9706616662173428 -0.37763374061034444 C -0.9661114734434093 -0.37763374061034444 -0.9624228141360733 -0.3739450813030084 -0.9624228141360733 -0.369394888529075 Z"/></g><g clip-path="url(#SvgjsClipPath8991225e2628c-d95c-40f7-9d17-bdc4cca2f2b8)"><path stroke="#3bade3" stroke-width="0.009004096048112115" stroke-linecap="round" stroke-miterlimit="10" fill-rule="nonzero" transform="matrix(1,0,0,1,0,0)" fill="none" d="M -0.8121849232423355 -0.32965454319589266 C -0.8182429027138571 -0.32844294730158835 -0.8376284370227267 -0.325292797976397 -0.8572562905104568 -0.3357125226674143 C -0.867676015201474 -0.34128586378121434 -0.8744609522095783 -0.3487977583259012 -0.8783380590713521 -0.3536441419031186"/></g><g clip-path="url(#SvgjsClipPath8991225e2628c-d95c-40f7-9d17-bdc4cca2f2b8)"><path stroke="#3bade3" stroke-width="0.009004096048112115" stroke-linecap="round" stroke-miterlimit="10" fill-rule="nonzero" transform="matrix(1,0,0,1,0,0)" fill="none" d="M -0.9706616662173428 -0.18571695095253737 L -0.9706616662173428 -0.34177050213893606 Z"/></g><g clip-path="url(#SvgjsClipPath8991225e2628c-d95c-40f7-9d17-bdc4cca2f2b8)"><path fill-rule="nonzero" transform="matrix(1,0,0,1,0,0)" fill="#ffffff" d="M -1.8776623526935698 0.9684492979617747 C -1.8708774156854655 0.8918764374417405 -1.8636078403196397 0.828873450937915 -1.8580344992058395 0.7850136795640981 C -1.8657887129293873 0.7770171466616893 -1.8820240979130656 0.7627203151088979 -1.9064983349780131 0.7554507397430719 C -1.9452694035957518 0.7435770999788895 -1.983313514676908 0.7566623356373763 -1.992763962652482 0.760781761678011 C -1.9942178777256472 0.7636895918243416 -1.998094984587421 0.8281464934013323 -2.0942956985951855 0.8281464934013323 C -2.178622772838767 0.8281464934013323 -2.1948581578224453 0.7876791905315672 -2.204793244155741 0.7581162507105415 C -2.2127897770581497 0.7542391438487674 -2.24356431277348 0.7489081219138285 -2.2757927635619755 0.7554507397430719 C -2.30511338420414 0.7615087192145935 -2.323287322618705 0.7784710617348543 -2.3298299404479486 0.7850136795640981 C -2.3242565993341486 0.832265919441967 -2.3174716623260445 0.8967228210189577 -2.3118983212122446 0.9737803198967134 C -2.3070519376350274 1.0384795406525653 -2.303174830773253 1.1063289107336083 -2.3009939581635055 1.1947754110178248 C -2.2992977239114794 1.2648056537086154 -2.3012362773423662 1.334835896399406 -2.3063249800984447 1.4051084582690574 C -2.2520454840336104 1.4177090555698226 -2.1824998797005413 1.4286134186185617 -2.101322954782151 1.429340376155144 C -2.012876454497934 1.4300673336917271 -1.937515189872204 1.4184360131064053 -1.8803278636610394 1.4051084582690574 C -1.8892936732788914 1.3297471936433276 -1.891959184246361 1.2611708660257024 -1.8912322267097785 1.2001064329527635 C -1.8900206308154741 1.1191718272132343 -1.8854165664171176 1.0566534790671305 -1.8776623526935698 0.9684492979617747 Z"/></g><g clip-path="url(#SvgjsClipPath8991225e2628c-d95c-40f7-9d17-bdc4cca2f2b8)"><path fill-rule="nonzero" transform="matrix(1,0,0,1,0,0)" fill="#ffffff" d="M -2.2704617416270363 0.7668397411495329 C -2.2869394457895753 0.7590855274259849 -2.3162600664317403 0.7484234835561068 -2.339038069244662 0.761266400035733 C -2.3407343034966877 0.7622356767511764 -2.341703580212131 0.7629626342877591 -2.3433998144641572 0.7639319110032026 C -2.3509117090088445 0.7695052521170025 -2.3601198378055575 0.7825904877754895 -2.3928329269517743 0.8436549208484279 C -2.4078567160411484 0.8715216264174277 -2.41391469551267 0.8812143935718624 -2.4255460160979916 0.9061732689945314 C -2.431846314748374 0.9197431430107401 -2.436935017504452 0.9313744635960619 -2.4403274860085045 0.9403402732139141 C -2.4141570146915305 0.954637104766705 -2.387501905016835 0.9689339363194964 -2.3598775186266963 0.9829884486934268 C -2.3407343034966877 0.9929235350267223 -2.3215910883666795 1.002373983002296 -2.302932511594393 1.011582111799009 C -2.3007516389846447 0.9660261061731661 -2.296389893765149 0.9163506745066881 -2.2883933608627407 0.8635250935150189 C -2.2833046581066623 0.8296004084744977 -2.2772466786351404 0.7973719576860021 -2.2704617416270363 0.7668397411495329 Z"/></g><g clip-path="url(#SvgjsClipPath8991225e2628c-d95c-40f7-9d17-bdc4cca2f2b8)"><path fill-rule="nonzero" transform="matrix(1,0,0,1,0,0)" fill="#ffffff" d="M -1.9198258898153608 0.7668397411495329 C -1.9033481856528218 0.7590855274259849 -1.8740275650106568 0.7484234835561068 -1.8512495621977352 0.761266400035733 C -1.8495533279457093 0.7622356767511764 -1.8485840512302656 0.7629626342877591 -1.8468878169782394 0.7639319110032026 C -1.8393759224335526 0.7695052521170025 -1.8301677936368397 0.7825904877754895 -1.7974547044906228 0.8436549208484279 C -1.782430915401249 0.8715216264174277 -1.7763729359297273 0.8812143935718624 -1.7647416153444055 0.9061732689945314 C -1.758441316694023 0.9197431430107401 -1.753352613937945 0.9313744635960619 -1.7499601454338927 0.9403402732139141 C -1.7761306167508664 0.954637104766705 -1.8027857264255618 0.9689339363194964 -1.8304101128157004 0.9829884486934268 C -1.849553327945709 0.9929235350267223 -1.8686965430757176 1.002373983002296 -1.8873551198480043 1.011582111799009 C -1.889535992457752 0.9660261061731661 -1.8938977376772477 0.9163506745066881 -1.9018942705796564 0.8635250935150189 C -1.9072252925145956 0.8296004084744977 -1.9132832719861175 0.7973719576860021 -1.9198258898153608 0.7668397411495329 Z"/></g><g clip-path="url(#SvgjsClipPath8991225e2628c-d95c-40f7-9d17-bdc4cca2f2b8)"><path stroke="#c12652" stroke-width="0.009004096048112115" stroke-linecap="round" stroke-miterlimit="10" fill-rule="nonzero" transform="matrix(1,0,0,1,0,0)" fill="none" d="M -2.3046287458464185 0.7447886958731942 C -2.2934820636188187 0.7636895918243416 -2.2740965293099493 0.8027029796209415 -2.270946379984758 0.8564978373280541 C -2.2660999964075406 0.9437327417179664 -2.3082635335293316 1.0050394939697658 -2.3191678965780707 1.0198209638802787"/></g><g clip-path="url(#SvgjsClipPath8991225e2628c-d95c-40f7-9d17-bdc4cca2f2b8)"><path stroke="#c12652" stroke-width="0.009004096048112115" stroke-linecap="round" stroke-miterlimit="10" fill-rule="nonzero" transform="matrix(1,0,0,1,0,0)" fill="none" d="M -2.297843808838314 0.7258877999220461 C -2.283546977285523 0.7474542068406635 -2.2585881018628537 0.7917986165722024 -2.25471099500108 0.8528630496451406 C -2.2484106963506973 0.9519715937992357 -2.3024478732366704 1.0217595173111655 -2.31626006643174 1.0387218598314263"/></g><g clip-path="url(#SvgjsClipPath8991225e2628c-d95c-40f7-9d17-bdc4cca2f2b8)"><path stroke="#c12652" stroke-width="0.009004096048112115" stroke-linecap="round" stroke-miterlimit="10" fill-rule="nonzero" transform="matrix(1,0,0,1,0,0)" fill="none" d="M -1.8912322267097785 0.7447886958731942 C -1.9023789089373784 0.7636895918243416 -1.9217644432462477 0.8027029796209415 -1.924914592571439 0.8564978373280541 C -1.9297609761486565 0.9437327417179664 -1.8875974390268655 1.0050394939697658 -1.8766930759781264 1.0198209638802787"/></g><g clip-path="url(#SvgjsClipPath8991225e2628c-d95c-40f7-9d17-bdc4cca2f2b8)"><path stroke="#c12652" stroke-width="0.009004096048112115" stroke-linecap="round" stroke-miterlimit="10" fill-rule="nonzero" transform="matrix(1,0,0,1,0,0)" fill="none" d="M -1.8980171637178826 0.7258877999220461 C -1.912313995270674 0.7474542068406635 -1.9372728706933433 0.7917986165722024 -1.941149977555117 0.8528630496451406 C -1.9474502762054997 0.9519715937992355 -1.893655418498387 1.0217595173111655 -1.8796009061244567 1.0387218598314263"/></g><g clip-path="url(#SvgjsClipPath8991225e2628c-d95c-40f7-9d17-bdc4cca2f2b8)"><path stroke="#c12652" stroke-width="0.009004096048112115" stroke-linecap="round" stroke-miterlimit="10" fill-rule="nonzero" transform="matrix(1,0,0,1,0,0)" fill="none" d="M -2.3121406403911053 1.3849959664236058 C -2.255922590895384 1.3985658404398142 -2.1824998797005413 1.4111664377405793 -2.096476571204933 1.411893395277162 C -2.0068184750264124 1.4128626719926054 -1.930487933685239 1.4009890322284229 -1.8725736499374916 1.3876614773910751"/></g><g clip-path="url(#SvgjsClipPath8991225e2628c-d95c-40f7-9d17-bdc4cca2f2b8)"><path stroke="#c12652" stroke-width="0.009004096048112115" stroke-linecap="round" stroke-miterlimit="10" fill-rule="nonzero" transform="matrix(1,0,0,1,0,0)" fill="none" d="M -2.3121406403911053 1.3663373896513191 C -2.255922590895384 1.3799072636675276 -2.1824998797005413 1.3925078609682928 -2.096476571204933 1.3932348185048755 C -2.0068184750264124 1.3942040952203187 -1.930487933685239 1.3823304554561364 -1.8725736499374916 1.3690029006187885"/></g><g clip-path="url(#SvgjsClipPath8991225e2628c-d95c-40f7-9d17-bdc4cca2f2b8)"><path stroke="#c12652" stroke-width="0.009004096048112115" stroke-linecap="round" stroke-miterlimit="10" fill-rule="nonzero" transform="matrix(1,0,0,1,0,0)" fill="none" d="M -1.9777401735631082 0.7663551027918112 C -1.9777401735631082 0.8117232013319129 -2.0320936533565 0.8485013044256453 -2.0991420821724027 0.8485013044256453 C -2.1661905109883053 0.8485013044256453 -2.2205439907816973 0.8117232013319129 -2.2205439907816973 0.7663551027918112 C -2.2205439907816973 0.7209870042517095 -2.1661905109883053 0.6842089011579773 -2.0991420821724027 0.6842089011579773 C -2.0320936533565 0.6842089011579773 -1.9777401735631082 0.7209870042517095 -1.9777401735631082 0.7663551027918112 Z"/></g><g clip-path="url(#SvgjsClipPath8991225e2628c-d95c-40f7-9d17-bdc4cca2f2b8)"><path fill-rule="nonzero" transform="matrix(1,0,0,1,0,0)" fill="#ffffff" d="M -0.6096060897146502 1.0467183927338346 C -0.5887666403326159 1.1005132504409476 -0.7547552778523101 1.2461470769363285 -0.9457027907946733 1.2870990181638151 C -1.1395581338833676 1.3287779169278844 -1.3537682879963744 1.2614131852045631 -1.356433798963844 1.203014263099094 C -1.3595839482890353 1.1327417012294427 -1.054746421282064 1.0699810339044782 -0.9905318388839341 1.0568957982459912 C -0.9154128934370649 1.0416296899777568 -0.6338380076007373 0.9837154062300093 -0.6096060897146502 1.0467183927338346 Z"/></g><g clip-path="url(#SvgjsClipPath8991225e2628c-d95c-40f7-9d17-bdc4cca2f2b8)"><path stroke="#4c6eb4" stroke-width="0.010785142012739493" stroke-miterlimit="10" fill-rule="nonzero" transform="matrix(1,0,0,1,0,0)" fill="none" d="M -0.6306878582755457 1.0542302872785216 C -0.6117869623243983 1.1005132504409476 -0.7700213861205445 1.2289424152372073 -0.9498222168353081 1.2672288454972238 C -1.132530877696402 1.3059999141149627 -1.3326865194354787 1.2509934605135458 -1.3341404345086438 1.2005910713104857 C -1.3360789879395305 1.139768957416408 -1.0489307609894025 1.081127716132078 -0.9885932854530468 1.0687694380101735 C -0.9178360852256737 1.0544726064573828 -0.6527389035518847 1.0001931103925483 -0.6306878582755457 1.0542302872785216 Z"/></g><g clip-path="url(#SvgjsClipPath8991225e2628c-d95c-40f7-9d17-bdc4cca2f2b8)"><path fill-rule="nonzero" transform="matrix(1,0,0,1,0,0)" fill="#ffffff" d="M -1.1756636915336367 1.1761168342455381 C -1.180267755931993 0.9955890459941921 -1.156520476403628 0.9434904225391054 -1.1298653667289327 0.9362208471732794 C -1.1022409803387938 0.9284666334497316 -1.074616593948655 0.9691762554983576 -1.0326953760057247 0.9577872540918966 C -0.9927127114936816 0.9471252102220185 -0.9890779238107685 0.9025384813116188 -0.9626651333149341 0.8957535443035145 C -0.9357677044613777 0.8889686072954104 -0.8892424221200912 0.922166334799349 -0.803703751982205 1.0818546736686605 C -0.8213930520390484 1.1070558682701908 -0.8490174384291873 1.1383150423432427 -0.8899693796566737 1.1627892794081902 C -1.0145214375911595 1.2371812673184766 -1.1538549654361585 1.1848403246845292 -1.1756636915336367 1.1761168342455381 Z"/></g><g clip-path="url(#SvgjsClipPath8991225e2628c-d95c-40f7-9d17-bdc4cca2f2b8)"><path stroke="#4c6eb4" stroke-width="0.009004096048112115" stroke-linecap="round" stroke-miterlimit="10" fill-rule="nonzero" transform="matrix(1,0,0,1,0,0)" fill="none" d="M -1.0072518622253335 0.929435910165175 C -1.0111289690871075 0.9306475060594792 -1.0319684184691422 0.9519715937992355 -1.0356032061520553 0.976688150043044"/></g><g clip-path="url(#SvgjsClipPath8991225e2628c-d95c-40f7-9d17-bdc4cca2f2b8)"><path fill-rule="nonzero" transform="matrix(1,0,0,1,0,0)" fill="#4c6eb4" d="M -1.1761483298913584 1.1412228724895732 C -1.1761483298913584 1.145099979351347 -1.1761483298913584 1.148977086213121 -1.1761483298913584 1.1530965122537555 C -1.149008581858941 1.164727832839077 -1.1039372145908202 1.17950930274959 -1.0496577185259854 1.17950930274959 C -1.0237295663878725 1.17950930274959 -0.9958628608188729 1.1761168342455381 -0.9665422401767079 1.1676356629854077 C -0.891907933087561 1.1460692560667904 -0.8427171397788049 1.1014825271563908 -0.8131541999577792 1.0644076927906783 C -0.815092753388666 1.061015224286626 -0.8170313068195529 1.0576227557825737 -0.8187275410715791 1.0542302872785216 C -0.8470788849983004 1.0903358449287905 -0.8953004015916131 1.1356495313757728 -0.9694500703230384 1.1572159382943903 C -1.0605620815747245 1.183871047969086 -1.1390734955256459 1.157942895830973 -1.1761483298913584 1.1412228724895732 Z"/></g><g clip-path="url(#SvgjsClipPath8991225e2628c-d95c-40f7-9d17-bdc4cca2f2b8)"><path fill-rule="nonzero" transform="matrix(1,0,0,1,0,0)" fill="#4c6eb4" d="M -0.804188390339927 1.081127716132078 C -0.8061269437708138 1.077492928449165 -0.80782317802284 1.0741004599451132 -0.8097617314537269 1.0707079914410609 C -0.8332666918032312 1.1012402079775303 -0.8817305275754044 1.1518849163594516 -0.959030345632021 1.17660147260326 C -1.054504102103203 1.2068913699608685 -1.1366503037370368 1.1807208986438948 -1.1759060107124975 1.1630315985870514 C -1.1759060107124975 1.1669087054488256 -1.1756636915336367 1.1707858123105994 -1.1756636915336367 1.1749052383512342 C -1.1620938175174278 1.1807208986438948 -1.1446468366394456 1.1870211972942772 -1.1238073872574108 1.1921099000503554 C -1.1133876625663939 1.194533091838964 -1.101998661159933 1.196713964448712 -1.0896403830380286 1.1984101987007383 C -1.0765551473795418 1.2001064329527644 -1.0627429541844722 1.2010757096682076 -1.0484461226316808 1.2010757096682076 C -1.0198524595260987 1.2010757096682076 -0.9885932854530468 1.1971986028064339 -0.9556378771279688 1.1867788781154167 C -0.8788226974290738 1.1623046410504685 -0.829389584941457 1.1131138477417126 -0.804188390339927 1.081127716132078 Z"/></g></g><g><path fill-rule="nonzero" fill="#102036" d="M 0.18 0.9967499999999998 Q 0.0615 0.9089999999999998 0.0525 0.7454999999999998 L 0.366 0.7454999999999998 Q 0.3705 0.8009999999999998 0.399 0.8264999999999998 Q 0.4275 0.8519999999999999 0.47250000000000003 0.8519999999999999 Q 0.513 0.8519999999999999 0.53925 0.8317499999999999 Q 0.5655 0.8114999999999999 0.5655 0.7754999999999999 Q 0.5655 0.7289999999999999 0.522 0.7034999999999998 Q 0.47850000000000004 0.6779999999999998 0.381 0.6464999999999999 Q 0.2775 0.6119999999999999 0.21375 0.5797499999999998 Q 0.15 0.5474999999999999 0.10275000000000001 0.48524999999999985 Q 0.0555 0.4229999999999998 0.0555 0.3224999999999998 Q 0.0555 0.2204999999999998 0.1065 0.14774999999999983 Q 0.1575 0.07499999999999984 0.2475 0.03749999999999987 Q 0.3375 -2.220446049250313e-16 0.4515 -2.220446049250313e-16 Q 0.636 -2.220446049250313e-16 0.74625 0.08624999999999983 Q 0.8565 0.17249999999999988 0.864 0.3284999999999998 L 0.5445 0.3284999999999998 Q 0.543 0.28049999999999986 0.51525 0.25649999999999984 Q 0.4875 0.23249999999999982 0.444 0.23249999999999982 Q 0.41100000000000003 0.23249999999999982 0.39 0.2519999999999998 Q 0.369 0.27149999999999985 0.369 0.3074999999999998 Q 0.369 0.3374999999999998 0.39225 0.35924999999999985 Q 0.41550000000000004 0.3809999999999998 0.45 0.3967499999999998 Q 0.4845 0.41249999999999987 0.552 0.4364999999999998 Q 0.6525 0.47099999999999986 0.71775 0.5047499999999998 Q 0.783 0.5384999999999999 0.83025 0.5992499999999998 Q 0.8775000000000001 0.6599999999999998 0.8775000000000001 0.7529999999999999 Q 0.8775000000000001 0.8474999999999998 0.83025 0.9224999999999999 Q 0.783 0.9974999999999998 0.69375 1.041 Q 0.6045 1.0844999999999998 0.483 1.0844999999999998 Q 0.2985 1.0844999999999998 0.18 0.9967499999999998 M 1.95899267578125 0.016499999999999737 L 1.95899267578125 1.0739999999999998 L 1.6649926757812499 1.0739999999999998 L 1.6649926757812499 0.6494999999999999 L 1.30649267578125 0.6494999999999999 L 1.30649267578125 1.0739999999999998 L 1.01249267578125 1.0739999999999998 L 1.01249267578125 0.016499999999999737 L 1.30649267578125 0.016499999999999737 L 1.30649267578125 0.4139999999999998 L 1.6649926757812499 0.4139999999999998 L 1.6649926757812499 0.016499999999999737 L 1.95899267578125 0.016499999999999737 M 2.359464111328125 1.0147499999999998 Q 2.234964111328125 0.9449999999999998 2.162214111328125 0.8212499999999998 Q 2.089464111328125 0.6974999999999998 2.089464111328125 0.5414999999999999 Q 2.089464111328125 0.38549999999999984 2.162214111328125 0.2617499999999998 Q 2.234964111328125 0.1379999999999998 2.359464111328125 0.06899999999999973 Q 2.483964111328125 -2.220446049250313e-16 2.632464111328125 -2.220446049250313e-16 Q 2.782464111328125 -2.220446049250313e-16 2.906214111328125 0.06899999999999973 Q 3.029964111328125 0.1379999999999998 3.101964111328125 0.2617499999999998 Q 3.173964111328125 0.38549999999999984 3.173964111328125 0.5414999999999999 Q 3.173964111328125 0.6974999999999998 3.101964111328125 0.8212499999999998 Q 3.029964111328125 0.9449999999999998 2.9054641113281248 1.0147499999999998 Q 2.780964111328125 1.0844999999999998 2.632464111328125 1.0844999999999998 Q 2.483964111328125 1.0844999999999998 2.359464111328125 1.0147499999999998 M 2.8102141113281247 0.7379999999999998 Q 2.875464111328125 0.6644999999999999 2.875464111328125 0.5414999999999999 Q 2.875464111328125 0.41549999999999987 2.8102141113281247 0.3427499999999998 Q 2.744964111328125 0.2699999999999998 2.632464111328125 0.2699999999999998 Q 2.5184641113281248 0.2699999999999998 2.453964111328125 0.3427499999999998 Q 2.3894641113281248 0.41549999999999987 2.3894641113281248 0.5414999999999999 Q 2.3894641113281248 0.6659999999999998 2.453964111328125 0.7387499999999998 Q 2.5184641113281248 0.8114999999999999 2.632464111328125 0.8114999999999999 Q 2.744964111328125 0.8114999999999999 2.8102141113281247 0.7379999999999998 M 4.095695068359375 0.5437499999999998 Q 4.051445068359375 0.6224999999999998 3.962195068359375 0.6697499999999998 Q 3.8729450683593747 0.7169999999999999 3.7439450683593747 0.7169999999999999 L 3.598445068359375 0.7169999999999999 L 3.598445068359375 1.0739999999999998 L 3.304445068359375 1.0739999999999998 L 3.304445068359375 0.016499999999999737 L 3.7439450683593747 0.016499999999999737 Q 3.8714450683593746 0.016499999999999737 3.960695068359375 0.06149999999999989 Q 4.049945068359375 0.10649999999999982 4.094945068359375 0.18599999999999983 Q 4.139945068359375 0.26549999999999985 4.139945068359375 0.3689999999999999 Q 4.139945068359375 0.46499999999999986 4.095695068359375 0.5437499999999998 M 3.8399450683593748 0.3689999999999999 Q 3.8399450683593748 0.25349999999999984 3.715445068359375 0.25349999999999984 L 3.598445068359375 0.25349999999999984 L 3.598445068359375 0.4829999999999999 L 3.715445068359375 0.4829999999999999 Q 3.8399450683593748 0.4829999999999999 3.8399450683593748 0.3689999999999999 M 4.550924560546875 0.2519999999999998 L 4.550924560546875 0.4244999999999999 L 4.888424560546875 0.4244999999999999 L 4.888424560546875 0.6479999999999999 L 4.550924560546875 0.6479999999999999 L 4.550924560546875 0.8384999999999998 L 4.933424560546875 0.8384999999999998 L 4.933424560546875 1.0739999999999998 L 4.256924560546874 1.0739999999999998 L 4.256924560546874 0.016499999999999737 L 4.933424560546875 0.016499999999999737 L 4.933424560546875 0.2519999999999998 L 4.550924560546875 0.2519999999999998 M 5.746385009765625 0.9014999999999999 L 5.371385009765625 0.9014999999999999 L 5.3143850097656244 1.0739999999999998 L 5.005385009765624 1.0739999999999998 L 5.390885009765625 0.016499999999999737 L 5.729885009765625 0.016499999999999737 L 6.1138850097656245 1.0739999999999998 L 5.803385009765625 1.0739999999999998 L 5.746385009765625 0.9014999999999999 M 5.672885009765625 0.6764999999999999 L 5.558885009765625 0.3344999999999998 L 5.446385009765625 0.6764999999999999 L 5.672885009765625 0.6764999999999999 M 6.304392333984374 0.9967499999999998 Q 6.185892333984374 0.9089999999999998 6.176892333984375 0.7454999999999998 L 6.490392333984374 0.7454999999999998 Q 6.4948923339843745 0.8009999999999998 6.523392333984375 0.8264999999999998 Q 6.551892333984375 0.8519999999999999 6.596892333984375 0.8519999999999999 Q 6.637392333984375 0.8519999999999999 6.663642333984375 0.8317499999999999 Q 6.689892333984375 0.8114999999999999 6.689892333984375 0.7754999999999999 Q 6.689892333984375 0.7289999999999999 6.646392333984375 0.7034999999999998 Q 6.602892333984375 0.6779999999999998 6.505392333984375 0.6464999999999999 Q 6.4018923339843745 0.6119999999999999 6.338142333984375 0.5797499999999998 Q 6.274392333984375 0.5474999999999999 6.227142333984375 0.48524999999999985 Q 6.179892333984375 0.4229999999999998 6.179892333984375 0.3224999999999998 Q 6.179892333984375 0.2204999999999998 6.230892333984374 0.14774999999999983 Q 6.281892333984374 0.07499999999999984 6.371892333984374 0.03749999999999987 Q 6.461892333984375 -2.220446049250313e-16 6.575892333984375 -2.220446049250313e-16 Q 6.760392333984375 -2.220446049250313e-16 6.8706423339843745 0.08624999999999983 Q 6.980892333984375 0.17249999999999988 6.9883923339843745 0.3284999999999998 L 6.668892333984375 0.3284999999999998 Q 6.667392333984375 0.28049999999999986 6.639642333984375 0.25649999999999984 Q 6.6118923339843745 0.23249999999999982 6.568392333984375 0.23249999999999982 Q 6.535392333984374 0.23249999999999982 6.514392333984374 0.2519999999999998 Q 6.493392333984374 0.27149999999999985 6.493392333984374 0.3074999999999998 Q 6.493392333984374 0.3374999999999998 6.516642333984374 0.35924999999999985 Q 6.539892333984374 0.3809999999999998 6.574392333984375 0.3967499999999998 Q 6.608892333984374 0.41249999999999987 6.676392333984374 0.4364999999999998 Q 6.7768923339843745 0.47099999999999986 6.842142333984374 0.5047499999999998 Q 6.907392333984375 0.5384999999999999 6.954642333984375 0.5992499999999998 Q 7.001892333984375 0.6599999999999998 7.001892333984375 0.7529999999999999 Q 7.001892333984375 0.8474999999999998 6.954642333984375 0.9224999999999999 Q 6.907392333984375 0.9974999999999998 6.818142333984374 1.041 Q 6.7288923339843745 1.0844999999999998 6.607392333984374 1.0844999999999998 Q 6.422892333984374 1.0844999999999998 6.304392333984374 0.9967499999999998 M 7.430885009765625 0.2519999999999998 L 7.430885009765625 0.4244999999999999 L 7.768385009765625 0.4244999999999999 L 7.768385009765625 0.6479999999999999 L 7.430885009765625 0.6479999999999999 L 7.430885009765625 0.8384999999999998 L 7.813385009765625 0.8384999999999998 L 7.813385009765625 1.0739999999999998 L 7.136885009765624 1.0739999999999998 L 7.136885009765624 0.016499999999999737 L 7.813385009765625 0.016499999999999737 L 7.813385009765625 0.2519999999999998 L 7.430885009765625 0.2519999999999998"/></g><g/></g><defs><clipPath id="SvgjsClipPath89917"><path d="M -2.652841405869485 -0.5894207029347427 h 2.2528414058694852 v 2.2528414058694852 h -2.2528414058694852 Z"/></clipPath><clipPath id="SvgjsClipPath8991225e2628c-d95c-40f7-9d17-bdc4cca2f2b8"><path d="M -2.652841405869485 -0.5894207029347427 L -0.3999999999999999 -0.5894207029347427 L -0.3999999999999999 1.6634207029347425 L -2.652841405869485 1.6634207029347425 Z"/></clipPath></defs></svg>